<?xml version="1.0" standalone="no"?>
<!DOCTYPE svg PUBLIC "-//W3C//DTD SVG 20010904//EN"
 "http://www.w3.org/TR/2001/REC-SVG-20010904/DTD/svg10.dtd">
<svg version="1.0" xmlns="http://www.w3.org/2000/svg"
 width="1076.000000pt" height="1076.000000pt" viewBox="0 0 1076.000000 1076.000000"
 preserveAspectRatio="xMidYMid meet">

<g transform="translate(0.000000,1076.000000) scale(0.100000,-0.100000)"
fill="#f03939" stroke="none">
<path d="M5155 10754 c-1357 -64 -2622 -621 -3575 -1574 -267 -268 -456 -497
-665 -810 -450 -673 -740 -1423 -854 -2210 -75 -512 -75 -1048 0 -1560 166
-1139 700 -2200 1519 -3020 268 -267 497 -456 810 -665 673 -450 1423 -740
2210 -854 512 -75 1048 -75 1560 0 1139 166 2200 700 3020 1519 267 268 456
497 665 810 450 673 740 1423 854 2210 75 512 75 1048 0 1560 -166 1139 -700
2200 -1519 3020 -268 267 -497 456 -810 665 -760 508 -1591 802 -2507 889
-164 16 -561 27 -708 20z m565 -3212 c396 -103 661 -296 828 -602 173 -317
218 -706 121 -1034 -41 -138 -137 -312 -236 -426 -77 -89 -104 -130 -97 -142
4 -7 45 -58 90 -113 132 -162 195 -268 244 -410 74 -211 80 -283 80 -887 -1
-501 -8 -658 -32 -697 -7 -11 -29 -29 -48 -38 -31 -14 -79 -17 -385 -17 -336
-1 -352 0 -390 20 -29 15 -47 35 -68 76 l-28 55 -9 574 c-5 395 -12 586 -20
614 -54 180 -211 324 -385 354 -33 6 -211 13 -395 16 -804 13 -863 15 -895 34
-60 35 -72 67 -80 218 -4 76 -5 242 -3 370 6 253 13 285 69 326 42 30 150 36
699 38 635 2 683 5 778 49 86 40 160 113 200 197 23 50 27 71 27 153 0 82 -4
103 -27 152 -33 71 -102 146 -166 181 -105 57 -119 58 -722 63 -717 5 -747 7
-788 28 -64 33 -67 51 -67 426 0 372 3 397 59 431 30 19 51 20 796 16 751 -3
767 -4 850 -25z m-2053 -647 c12 -8 29 -35 38 -60 16 -41 17 -65 6 -302 -15
-323 -26 -445 -40 -472 -31 -58 -210 -159 -556 -316 -349 -158 -393 -179 -562
-263 -206 -103 -229 -119 -220 -154 7 -28 44 -55 167 -121 76 -40 506 -241
700 -327 154 -68 356 -173 399 -208 104 -85 115 -125 131 -483 13 -277 6 -370
-28 -404 -32 -32 -60 -39 -130 -32 -241 22 -1463 570 -1830 820 -93 63 -221
183 -284 267 -61 80 -131 223 -152 311 -40 163 -9 371 76 515 85 145 250 305
439 426 305 195 1369 702 1684 803 56 18 136 18 162 0z m3578 -10 c164 -57
574 -228 876 -365 63 -29 130 -59 149 -68 155 -69 539 -257 645 -315 368 -202
527 -364 581 -594 21 -91 21 -303 0 -403 -23 -108 -102 -262 -185 -357 -96
-111 -196 -188 -361 -276 -19 -11 -48 -27 -65 -37 -145 -85 -645 -326 -940
-452 -504 -215 -734 -292 -810 -269 -55 16 -64 23 -86 58 -22 35 -22 39 -16
357 3 196 10 339 17 368 14 54 51 96 135 150 61 40 480 250 705 353 186 85
482 237 502 257 10 10 18 24 18 32 0 45 -148 129 -510 289 -118 52 -294 130
-390 172 -349 155 -436 206 -463 272 -39 100 -74 685 -47 785 16 57 42 70 125
65 39 -3 93 -12 120 -22z"/>
</g>
</svg>
